<svg xmlns="http://www.w3.org/2000/svg" viewBox="0 0 38.13 45.81"><defs><style>.cls-1{opacity:0.2;}.cls-2,.cls-3,.cls-4{fill:#f2f2f2;}.cls-3,.cls-5{stroke:#b3b3b3;}.cls-3,.cls-4,.cls-5,.cls-6,.cls-7{stroke-miterlimit:10;stroke-width:0.25px;}.cls-4{stroke:#e6e6e6;}.cls-5{fill:#fff;}.cls-6,.cls-7{fill:red;stroke:red;}.cls-7{font-size:8.39px;font-family:OCRAExtended, OCR A Extended;}</style></defs><g id="animations"><g id="animations-2" data-name="animations"><path class="cls-2" d="M25,22.69v-.44A1.09,1.09,0,0,1,25,22.69Z" transform="translate(-5.95 -1.09)"/><ellipse class="cls-3" cx="19.07" cy="5.46" rx="5.23" ry="5.33"/><path class="cls-3" d="M36.43,19.21a1.51,1.51,0,0,1-.23.35l-3.43,3.82a1.29,1.29,0,0,1-.64.4,1.34,1.34,0,0,1-1.28-.29,1.37,1.37,0,0,1-.33-1.6,1.72,1.72,0,0,1,.22-.33l2.49-2.78-2.91-2.27v5.32c-.23-.07-.19,1.47-.44,1.47-1.42,0-.36,1-.36,1s-1.34,2.57.08,2.57a2.46,2.46,0,0,0,.72-.1v4.14h0V45.17a1.61,1.61,0,0,1-1.61,1.61h-.39a1.61,1.61,0,0,1-1.61-1.61V32.91c0-.68-1.15-1.24-1.74-1.24s-1.74.56-1.74,1.24V45.17a1.61,1.61,0,0,1-1.61,1.61h-.39a1.61,1.61,0,0,1-1.61-1.61V22.69a1.62,1.62,0,0,0,0-.44V16.57L16.8,18.78l2.49,2.78a1.35,1.35,0,0,1,.33.69v.44a1.39,1.39,0,0,1-.44.8,1.37,1.37,0,0,1-1.93-.11l-3.43-3.82a1.59,1.59,0,0,1-.22-.35A1.37,1.37,0,0,1,14,17.52l6.29-4.92.25-.2.1-.07h0a1.66,1.66,0,0,1,.76-.21l.19,0h0l.16.06.38.16A7.47,7.47,0,0,0,25,12.9a7.57,7.57,0,0,0,3.21-.71.8.8,0,0,1,.33-.08h.15a1.32,1.32,0,0,1,.84.29l6.55,5.12A1.38,1.38,0,0,1,36.43,19.21Z" transform="translate(-5.95 -1.09)"/><path class="cls-4" d="M26.66,21.83v4.94a2.46,2.46,0,0,1-.72.1,2.58,2.58,0,1,1,0-5.15A2.46,2.46,0,0,1,26.66,21.83Z" transform="translate(-5.95 -1.09)"/><path class="cls-2" d="M25,22.69v-.44A1.09,1.09,0,0,1,25,22.69Z" transform="translate(-5.95 -1.09)"/><path class="cls-5" d="M36.47,21.63V32.06H11.29a5.22,5.22,0,1,1,0-10.43Z" transform="translate(-5.95 -1.09)"/><circle class="cls-5" cx="31.52" cy="25.75" r="6.48"/><polygon class="cls-6" points="29.04 29.75 28.89 25.66 28.83 21.78 35.99 25.77 29.04 29.75"/><text class="cls-7" transform="translate(3.49 28.35)">PLAY</text><path class="cls-3" d="M36.43,19.2a1.38,1.38,0,0,1-.22.35l-3.44,3.84a1.45,1.45,0,0,1-.64.4,1.4,1.4,0,0,1-1.28-.3,1.36,1.36,0,0,1-.33-1.59,1.24,1.24,0,0,1,.22-.34l2.5-2.78-2.92-2.27v5.12H19.62V16.57L16.8,18.78l2.49,2.78a1.34,1.34,0,0,1,.33.7v.43a1.37,1.37,0,0,1-2.37.7l-3.42-3.84a.87.87,0,0,1-.22-.34A1.35,1.35,0,0,1,14,17.52l6.29-4.92.26-.2.09-.06,0,0a1.68,1.68,0,0,1,.75-.2.62.62,0,0,1,.2,0,.59.59,0,0,1,.16.06l.38.16a7.63,7.63,0,0,0,6.06-.16.61.61,0,0,1,.32-.08h.15a1.43,1.43,0,0,1,.85.29l6.54,5.12A1.38,1.38,0,0,1,36.43,19.2Z" transform="translate(-5.95 -1.09)"/></g></g></svg>