<svg xmlns="http://www.w3.org/2000/svg" viewBox="0 0 46.35 46.51"><defs><style>.cls-1{opacity:0.2;}.cls-2{fill:#f2f2f2;}.cls-2,.cls-5{stroke:#b3b3b3;}.cls-2,.cls-3,.cls-4,.cls-5,.cls-6{stroke-miterlimit:10;}.cls-2,.cls-5,.cls-6{stroke-width:0.25px;}.cls-3{fill:#60bcff;opacity:0.28;}.cls-3,.cls-4{stroke:#60bcff;}.cls-4,.cls-5{fill:none;}.cls-6{fill:red;stroke:red;}</style></defs><g id="capture"><g id="Capture-2" data-name="Capture"><path class="cls-2" d="M13.62,1.52c0,.34-2.69.62-6.1.65H2.26V6.9c0,.18,0,.36,0,.54,0,3.41-.3,6.1-.65,6.1S1,10.85,1,7.44V1.26A.36.36,0,0,1,1.06,1l0,0A.36.36,0,0,1,1.34.87H7.52C10.93.9,13.62,1.18,13.62,1.52Z" transform="translate(-0.82 -0.74)"/><path class="cls-2" d="M34.38,1.52c0,.34,2.69.62,6.1.65h5.26V6.9c0,.18,0,.36,0,.54,0,3.41.3,6.1.65,6.1s.62-2.69.65-6.1V1.26A.36.36,0,0,0,46.94,1l0,0a.36.36,0,0,0-.26-.11H40.48C37.07.9,34.38,1.18,34.38,1.52Z" transform="translate(-0.82 -0.74)"/><path class="cls-2" d="M13.62,46.48c0-.34-2.69-.62-6.1-.65H2.26V41.1c0-.18,0-.36,0-.54,0-3.41-.3-6.1-.65-6.1S1,37.15,1,40.56v6.18a.36.36,0,0,0,.11.26l0,0a.36.36,0,0,0,.26.11H7.52C10.93,47.1,13.62,46.82,13.62,46.48Z" transform="translate(-0.82 -0.74)"/><path class="cls-2" d="M34.38,46.48c0-.34,2.69-.62,6.1-.65h5.26V41.1c0-.18,0-.36,0-.54,0-3.41.3-6.1.65-6.1s.62,2.69.65,6.1v6.18a.36.36,0,0,1-.11.26l0,0a.36.36,0,0,1-.26.11H40.48C37.07,47.1,34.38,46.82,34.38,46.48Z" transform="translate(-0.82 -0.74)"/><ellipse class="cls-3" cx="26.11" cy="41.63" rx="10.13" ry="2.72"/><ellipse class="cls-4" cx="26.11" cy="41.63" rx="10.13" ry="2.72"/><ellipse class="cls-2" cx="24.78" cy="12.35" rx="2.72" ry="2.78"/><ellipse class="cls-2" cx="20.23" cy="4.33" rx="2.72" ry="2.78"/><path class="cls-2" d="M39,25.52a.91.91,0,0,1-1.28.2l-5.17-3.78-.12-.11a.79.79,0,0,1-.15-.12l-4.49-4.49a.92.92,0,0,1,.65-1.56.92.92,0,0,1,.65.27l4.49,4.49h0l0,0,5.17,3.78A.91.91,0,0,1,39,25.52Z" transform="translate(-0.82 -0.74)"/><path class="cls-2" d="M32.94,33.41v7.37a1.3,1.3,0,1,1-2.6,0V33.57L28.58,26.8a1.66,1.66,0,0,0-.92-.19c-.37.06-1,.48-1,.85h-.05l-1.46,6.43-1,8.12a1.3,1.3,0,1,1-2.58-.32l1-8a2.34,2.34,0,0,1,0-.26l1.54-6.77a1.55,1.55,0,0,1,.07-.23l-1.4-8.74a1.15,1.15,0,0,1,.93-1.32h0a.5.5,0,0,1,.21,0,5.37,5.37,0,0,0,4-.63.5.5,0,0,1,.2-.08h0a1.15,1.15,0,0,1,1.31,1l1.38,8.65h0a1.09,1.09,0,0,1,.1.25l1.95,7.51v0a.09.09,0,0,1,0,.05A1.26,1.26,0,0,1,32.94,33.41Z" transform="translate(-0.82 -0.74)"/><path class="cls-2" d="M27.92,9.81h-.1l-6.37.65a.93.93,0,0,1-1-.82V9.57a.92.92,0,0,1,.82-.92l5.38-.54-.51-2.57a.91.91,0,0,1,.72-1.08l.18,0a.94.94,0,0,1,.9.74l.7,3.56A.9.9,0,0,1,27.92,9.81Z" transform="translate(-0.82 -0.74)"/><path class="cls-2" d="M23.45,9.91l-2.38,8.65L23,24.91a1.33,1.33,0,0,1-.47,1.41l-4.83,4.83a1.3,1.3,0,1,1-1.84-1.83l4.42-4.42-1.69-5.67a1.6,1.6,0,0,0-.58-.4A2.13,2.13,0,0,0,17,19l-.93-.25a1.09,1.09,0,0,1-.62-1.39L18,8.4a1.08,1.08,0,0,1,1.24-.88h0a.3.3,0,0,1,.16.08,3.84,3.84,0,0,0,1.55.84,3.71,3.71,0,0,0,1.75.07.55.55,0,0,1,.18,0h0A1.09,1.09,0,0,1,23.45,9.91Z" transform="translate(-0.82 -0.74)"/><path class="cls-2" d="M25.25,22.26l-6.41-.16a.76.76,0,0,1-.21,0h0a.94.94,0,0,1-.52-.33.9.9,0,0,1-.18-.68.92.92,0,0,1,.34-.61l5-3.89A.92.92,0,0,1,24.41,18l-3,2.32,3.88.1a.92.92,0,0,1,0,1.83Z" transform="translate(-0.82 -0.74)"/><rect class="cls-2" x="13.74" y="3.66" width="1.83" height="10.35" rx="0.88" transform="translate(6.52 23.56) rotate(-95.81)"/><path class="cls-2" d="M18,18c0,.08,0,.16,0,.24l-1.31,6.83a1.32,1.32,0,0,1-1.17,1.05,1.3,1.3,0,0,1-1.29-.28L9.11,21.12A1.32,1.32,0,0,1,9,19.28a1.33,1.33,0,0,1,1-.41,1.3,1.3,0,0,1,.88.34l3.63,3.36.92-4.82c.16-1.24,1-1.81,1.69-1.71C18.22,16.21,18.13,16.7,18,18Z" transform="translate(-0.82 -0.74)"/><path class="cls-5" d="M6.39,19.74a2,2,0,0,1,2.09-2.67" transform="translate(-0.82 -0.74)"/><path class="cls-5" d="M7.22,19.72" transform="translate(-0.82 -0.74)"/><path class="cls-5" d="M9.05,19.67" transform="translate(-0.82 -0.74)"/><path class="cls-5" d="M7.22,19.72a1.69,1.69,0,0,1,1.44-1.84" transform="translate(-0.82 -0.74)"/><path class="cls-5" d="M9.05,19.67" transform="translate(-0.82 -0.74)"/><path class="cls-5" d="M5.53,19.77a2.58,2.58,0,0,1,.33-2.59,2.61,2.61,0,0,1,2.43-.95" transform="translate(-0.82 -0.74)"/><path class="cls-5" d="M7.22,19.72" transform="translate(-0.82 -0.74)"/><path class="cls-5" d="M9.05,19.67" transform="translate(-0.82 -0.74)"/><path class="cls-5" d="M8.29,16.23a2.61,2.61,0,0,0-2.43.95,2.58,2.58,0,0,0-.33,2.59" transform="translate(-0.82 -0.74)"/><path class="cls-5" d="M5.53,19.77a2.58,2.58,0,0,1,.33-2.59,2.61,2.61,0,0,1,2.43-.95" transform="translate(-0.82 -0.74)"/><path class="cls-5" d="M7.22,19.72" transform="translate(-0.82 -0.74)"/><path class="cls-5" d="M9.05,19.67" transform="translate(-0.82 -0.74)"/><path class="cls-5" d="M39.89,22.64a2,2,0,0,1,1.47,3.05" transform="translate(-0.82 -0.74)"/><path class="cls-5" d="M39.54,23.39" transform="translate(-0.82 -0.74)"/><path class="cls-5" d="M38.78,25.05" transform="translate(-0.82 -0.74)"/><path class="cls-5" d="M39.54,23.39a1.7,1.7,0,0,1,1,2.1" transform="translate(-0.82 -0.74)"/><path class="cls-5" d="M38.78,25.05" transform="translate(-0.82 -0.74)"/><path class="cls-5" d="M40.25,21.85a2.57,2.57,0,0,1,2,4" transform="translate(-0.82 -0.74)"/><path class="cls-5" d="M39.54,23.39" transform="translate(-0.82 -0.74)"/><path class="cls-5" d="M38.78,25.05" transform="translate(-0.82 -0.74)"/><path class="cls-5" d="M42.2,25.9a2.57,2.57,0,0,0-2-4" transform="translate(-0.82 -0.74)"/><path class="cls-5" d="M40.25,21.85a2.57,2.57,0,0,1,2,4" transform="translate(-0.82 -0.74)"/><path class="cls-5" d="M39.54,23.39" transform="translate(-0.82 -0.74)"/><path class="cls-5" d="M38.78,25.05" transform="translate(-0.82 -0.74)"/><ellipse class="cls-6" cx="6.46" cy="40.05" rx="3.02" ry="3.09"/></g></g></svg>