<svg xmlns="http://www.w3.org/2000/svg" viewBox="0 0 39.08 46.4"><defs><style>.cls-1{opacity:0.2;}.cls-2,.cls-5{fill:#f2f2f2;}.cls-2,.cls-3,.cls-4,.cls-5{stroke:#b3b3b3;stroke-miterlimit:10;}.cls-2{stroke-width:0.5px;}.cls-3{fill:#fcee21;}.cls-3,.cls-4,.cls-5{stroke-width:0.25px;}.cls-4{fill:#999;}</style></defs><g id="edit"><path class="cls-2" d="M37.61,21.93a1.8,1.8,0,0,1-1.26.67l-.88-.16a1.86,1.86,0,0,1-.41-.23l-4.14-3.34-4.51-3.61a1.82,1.82,0,1,1,2.29-2.84L36.87,19l.47.37A1.84,1.84,0,0,1,37.61,21.93Z" transform="translate(-4.42 -0.8)"/><g id="Capture"><ellipse class="cls-2" cx="19.56" cy="5.62" rx="5.27" ry="5.37"/><rect class="cls-2" x="14.17" y="28.63" width="3.64" height="17.52" rx="1.7"/><path class="cls-2" d="M29.38,14.15v16.7A2,2,0,0,1,27.56,33H25.74c0-.69-1.16-1.25-1.75-1.25s-1.76.56-1.76,1.25H20.42a2,2,0,0,1-1.83-2.13V14.15A2,2,0,0,1,20.42,12h0a.8.8,0,0,1,.33.08,7.63,7.63,0,0,0,6.47,0,.8.8,0,0,1,.33-.08h0A2,2,0,0,1,29.38,14.15Z" transform="translate(-4.42 -0.8)"/><rect class="cls-2" x="21.32" y="28.63" width="3.64" height="17.52" rx="1.7"/></g><rect class="cls-3" x="19.72" y="6.68" width="7.63" height="33.77" transform="translate(20.64 -10.51) rotate(47.6)"/><path class="cls-4" d="M36.28,6.48h5.63a1,1,0,0,1,1,1v4.75a0,0,0,0,1,0,0H35.28a0,0,0,0,1,0,0V7.48A1,1,0,0,1,36.28,6.48Z" transform="translate(15.22 -26.63) rotate(47.6)"/><polygon class="cls-5" points="8.25 37.84 0.2 40.03 3.11 32.21 5.68 35.03 8.25 37.84"/><path class="cls-2" d="M21.45,15.25,17,18.86l3.88,4.26a1.82,1.82,0,1,1-2.69,2.46l-5.15-5.64h0a.45.45,0,0,1-.09-.1,1.83,1.83,0,0,1,.25-2.56l5.91-4.84a1.81,1.81,0,0,1,2.56.26,1.78,1.78,0,0,1,.41,1.15A1.84,1.84,0,0,1,21.45,15.25Z" transform="translate(-4.42 -0.8)"/><path class="cls-2" d="M37.61,21.93a1.8,1.8,0,0,1-1.26.67l-.88-.16L32,21.81a1.82,1.82,0,0,1-1.47-2.11,1.88,1.88,0,0,1,.39-.83,1.81,1.81,0,0,1,1.73-.65l4.22.77.47.37A1.84,1.84,0,0,1,37.61,21.93Z" transform="translate(-4.42 -0.8)"/></g></svg>