<svg xmlns="http://www.w3.org/2000/svg" viewBox="0 0 46 46.51"><defs><style>.cls-1{opacity:0.2;}.cls-2,.cls-4{fill:#f2f2f2;}.cls-2,.cls-3,.cls-4,.cls-6{stroke:#b3b3b3;}.cls-2,.cls-3,.cls-4,.cls-5,.cls-6,.cls-8{stroke-miterlimit:10;}.cls-2,.cls-3{stroke-width:0.25px;}.cls-3,.cls-5,.cls-6{fill:none;}.cls-4,.cls-6{stroke-width:0.5px;}.cls-5,.cls-8{stroke:#29abe2;}.cls-7{fill:#bdbdbd;}.cls-8{fill:#29abe2;}</style></defs><g id="export"><g id="Capture"><path class="cls-2" d="M39.43,14.23l-.27.32L24.83,31.16l-8.36-7.63c0,5.41-.54,6.89-.68,6.75-1.33-1.35-1.75-8.22-2.9-8.4-3.61-.61-7-2-7-2.5S11.89,17.5,39.43,14.23Z" transform="translate(-1 -0.75)"/><line class="cls-3" x1="15.28" y1="22.36" x2="38.38" y2="13.72"/><line class="cls-3" x1="11.67" y1="21.09" x2="38.43" y2="13.49"/><path class="cls-2" d="M14.56,13.52a.85.85,0,0,1-1.11-.32L11.59,9.85s0,0,0,0a.71.71,0,0,1-.09-.73L13,5.6a.84.84,0,0,1,1.07-.43.76.76,0,0,1,.5.83.84.84,0,0,1-.05.17L13.15,9.33l1.76,3.16A.74.74,0,0,1,14.56,13.52Z" transform="translate(-1 -0.75)"/><path class="cls-2" d="M22.06,8.84l0,0-2.17,3.17a.84.84,0,0,1-.64.35.81.81,0,0,1-.5-.12.74.74,0,0,1-.25-1.06l2.05-3L19.46,5a.86.86,0,0,1,0-.17A.77.77,0,0,1,20,4a.84.84,0,0,1,1,.51l1.18,3.61A.75.75,0,0,1,22.06,8.84Z" transform="translate(-1 -0.75)"/><ellipse class="cls-2" cx="15.44" cy="8.51" rx="3.11" ry="3.27" transform="translate(4.27 22.16) rotate(-83.61)"/><path class="cls-2" d="M22.68,20.22l-2.63-8.38h0A1.24,1.24,0,0,0,18.91,11a.77.77,0,0,0-.29.05h0a.33.33,0,0,0-.19.11,4.93,4.93,0,0,1-1.79,1,4.73,4.73,0,0,1-1.86.21h-.4a1.17,1.17,0,0,0-.75,1.24.92.92,0,0,0,.05.28l2.81,8.89" transform="translate(-1 -0.75)"/><path class="cls-4" d="M1.25,46.42V1.59A.58.58,0,0,1,1.82,1h27.1a.58.58,0,0,1,.58.59v.09a.59.59,0,0,1-.58.6H2.49V45.73h43V18.57a.58.58,0,0,1,.57-.59h.1a.58.58,0,0,1,.57.59V46.42a.17.17,0,0,1,0,.07.56.56,0,0,1-.56.51H1.82A.58.58,0,0,1,1.25,46.42Z" transform="translate(-1 -0.75)"/><path class="cls-5" d="M32.67,11.64c1-2.88,5.13-5.83,9.17-6.62" transform="translate(-1 -0.75)"/><path class="cls-6" d="M23.51,36.19" transform="translate(-1 -0.75)"/><path class="cls-6" d="M13.21,26.86" transform="translate(-1 -0.75)"/><path class="cls-6" d="M31.87,40.57" transform="translate(-1 -0.75)"/><path class="cls-6" d="M23.51,36.19" transform="translate(-1 -0.75)"/><path class="cls-7" d="M19.41,43.5s0,.08.1,0l0-.1Z" transform="translate(-1 -0.75)"/><path class="cls-7" d="M20.09,43.52c.11-.06.22-.16.13-.22-.09.11-.13.08-.23.2s-.17,0-.16,0-.15,0-.19.08a.69.69,0,0,0,.45-.08S20.1,43.51,20.09,43.52Z" transform="translate(-1 -0.75)"/><path class="cls-7" d="M29.42,41.25h0Z" transform="translate(-1 -0.75)"/><path class="cls-7" d="M34.75,38.59l0,.06S34.76,38.59,34.75,38.59Z" transform="translate(-1 -0.75)"/><path class="cls-7" d="M35.53,37.9l0,.05Z" transform="translate(-1 -0.75)"/><path class="cls-7" d="M29.42,41.25l.16,0S29.49,41.23,29.42,41.25Z" transform="translate(-1 -0.75)"/><path class="cls-7" d="M21.34,43.05l-.08,0,.08,0Z" transform="translate(-1 -0.75)"/><polygon class="cls-7" points="25.92 41.31 25.87 41.33 25.84 41.37 25.92 41.31"/><path class="cls-7" d="M25,42.6s0-.08.05-.12a.13.13,0,0,1-.09.07Z" transform="translate(-1 -0.75)"/><path class="cls-7" d="M21.84,43.23l-.05,0Z" transform="translate(-1 -0.75)"/><path class="cls-7" d="M28.31,41.67l0,0Z" transform="translate(-1 -0.75)"/><path class="cls-7" d="M10.8,27.32h0S10.82,27.31,10.8,27.32Z" transform="translate(-1 -0.75)"/><path class="cls-7" d="M13.18,27.08h0a.06.06,0,0,0,0,0Z" transform="translate(-1 -0.75)"/><path class="cls-7" d="M36.71,36.39h0S36.7,36.42,36.71,36.39Z" transform="translate(-1 -0.75)"/><path class="cls-7" d="M23.3,35.84c.2,0-.25.2,0,.15C23.31,36,23.54,35.78,23.3,35.84Z" transform="translate(-1 -0.75)"/><path class="cls-7" d="M21.39,43.05l.09,0Z" transform="translate(-1 -0.75)"/><path class="cls-7" d="M23.34,36Z" transform="translate(-1 -0.75)"/><path class="cls-7" d="M35.56,32.45l0,0S35.59,32.48,35.56,32.45Z" transform="translate(-1 -0.75)"/><path class="cls-7" d="M37,35.27l0-.08Z" transform="translate(-1 -0.75)"/><path class="cls-7" d="M33.83,32.27a.23.23,0,0,0-.12,0h0A.16.16,0,0,1,33.83,32.27Z" transform="translate(-1 -0.75)"/><polygon class="cls-7" points="31.08 31.7 31.12 31.71 31.17 31.7 31.08 31.7"/><path class="cls-7" d="M6.53,30.53l.1,0C6.57,30.49,6.71,30.26,6.53,30.53Z" transform="translate(-1 -0.75)"/><path class="cls-7" d="M21.35,43.09a.08.08,0,0,1,0,0h-.05S21.34,43.09,21.35,43.09Z" transform="translate(-1 -0.75)"/><path class="cls-7" d="M33.77,32.82h0Z" transform="translate(-1 -0.75)"/><path class="cls-7" d="M12.18,38.92h0Z" transform="translate(-1 -0.75)"/><path class="cls-7" d="M32.73,32.9l-.16,0,0,0Z" transform="translate(-1 -0.75)"/><path class="cls-7" d="M6.63,30.49Z" transform="translate(-1 -0.75)"/><path class="cls-7" d="M7.77,29c-.21.18,0,.15,0,.23-.22.24-.15.05-.27.09a3.09,3.09,0,0,1-.28.44s0,0,0,0c-.09.21-.41.49-.47.75h0a.14.14,0,0,1,.12.05c-.06.1-.07.21-.14.21s0-.07,0-.11l0,.12c-.14,0,.07-.16,0-.2-.12.22-.19.5-.3.66-.1,0,.18-.4,0-.22l.17-.24c-.24.12.11-.14-.13,0a7.29,7.29,0,0,0-.37.74c0,.1.08,0,.09.1-.14.53-.36.34-.38.77,0,.11.13.18,0,.45l-.07-.12c-.08.38.08.23,0,.62,0-.08,0-.3,0-.25-.11.25,0,.19,0,.38l-.09,0a5.72,5.72,0,0,0,.15,1.28s-.06-.09-.07,0a8.35,8.35,0,0,0,.55,1.69l.18.13s0,.1,0,.06c.11.19,0,0,.13,0s.07.15,0,.1c.28.28.82.7,1.11,1l-.07,0c.25.19.36.07.58.26H8a15.29,15.29,0,0,0,1.75.69c.11-.07.63.17.69,0a2.85,2.85,0,0,0,.77.23c.14,0,.21-.07.38-.08v.07l.24-.07.12.1.16,0c-.06,0-.13,0-.12-.06.25,0,.61,0,.61.1.2,0,.4-.05.59-.09,0,0-.11.05-.18.07.31-.09.06.08.34,0,0,0,0,0,0-.07a1.92,1.92,0,0,0,.71,0l0,.06c.44,0,.92-.12,1.41-.19-.18,0-.15-.09,0-.12l.07.07c.08-.06-.16,0,0-.1s.14.08,0,.12l.21-.06s0,0,0,.07.39,0,.51-.08v0c.49-.08.71-.15,1.1-.23,0-.07.15-.08.25-.16a6,6,0,0,0,1-.15c.23-.09.06-.07.15-.14s.38,0,.21.05a7.07,7.07,0,0,0,1-.36c-.06,0-.13,0-.1,0s.22,0,.21,0l0,0c.55-.27,1.38-.26,1.79-.56h0l.44-.24c.22-.08-.11.09.06.07.46-.3.79-.31,1.17-.56.39,0,1.09-.51,1.56-.6l0,0c.09-.09.14,0,.22-.07s-.13,0-.08,0A24.43,24.43,0,0,1,28,34.38c.34-.13.1-.3.57-.38l-.09.13a17,17,0,0,1,2.11-.81s0,0-.1.07a.88.88,0,0,0,.54-.2c.11,0,0,0,.11.05s.36-.17.45-.13,0,0-.06,0,.46-.1.35-.15c.27,0,.5-.13.72-.12s.47,0,.5-.14c0,.11.48,0,.64,0-.05,0,.15,0,.08.08.19,0,.37,0,.34-.07.33.15.72,0,.87.19a2.45,2.45,0,0,1,1.37.62c-.07,0-.39-.34-.45-.22.37.2.63.36.73.79,0,.11-.06-.05-.09-.08a2.22,2.22,0,0,1,0,1.25s0,0,0-.09-.07.17,0,.18v-.08c.12-.11,0,.37.05.4-.07-.19-.21.38-.28.09,0,.06,0,.13,0,.13s-.08.09-.07,0c-.11.28,0,.21-.16.45,0,0,0-.06,0-.1a.92.92,0,0,1-.21.48s0,0,0-.07a4.72,4.72,0,0,1-.63,1c0-.17-.13.1-.22.05l-.14.2.1,0a2.8,2.8,0,0,1-.38.44l.09-.14-.28.29.19-.13c-.13.18.1.07-.13.25,0,0-.16.14-.29.17h0a.84.84,0,0,1-.27.26s0-.11-.07-.11-.39.31-.46.45a.05.05,0,0,0,0-.08l0,.1c-.1,0-.12,0-.12,0-.26.15.14.06-.19.19,0,0,0,0,.05,0a9.83,9.83,0,0,1-.9.48c-.12,0,.25-.15.12-.17a8.56,8.56,0,0,1-1.28.65l.08,0c0,.15-.34.06-.54.19.05,0,0-.09,0-.07a9,9,0,0,0-1,.42l0,0c-.19,0-.48.13-.67.17s-.16.08-.08.11c-.65,0-1.11.44-1.68.43.06,0,.14-.07.09,0l-.44.15c.05,0,.07,0,.17,0a.61.61,0,0,1-.28.14c.2-.09,0-.09-.12-.1s0,0,0,.06c-.27,0,0,.12-.35.15v0a2.17,2.17,0,0,1-.35.15c-.08,0,.12-.07.11-.12-.18,0-.33.22-.51.2l.26-.11a.81.81,0,0,0-.36,0h0l-.32,0h.08c-.18.23-.46.16-.74.35.27-.18,0-.08,0-.16s-.21,0-.18,0c-.13.1-.26,0-.44.16,0,0-.16,0-.14,0-.19.07.05,0,0,.07-.27.15-.71.07-1.11.28s-.4.23-.73.34c-.13,0,.07-.1.07-.1a1.22,1.22,0,0,0-.5.11s0,0-.07-.06-.07.11-.27.12a.47.47,0,0,1,.12-.13c-.16.06-.31.14-.48.2s.09-.09.15-.13a1.79,1.79,0,0,0-.54.22h.13c-.07,0-.05-.05,0-.07s.24,0,.26,0l-.12,0c.15.12.48-.12.73-.17l-.08.13.23-.14c.06,0,.11.06,0,.1.19,0,.15-.07.32,0,0,0,0,0,0,0l.17-.07s0,.07-.07.08c.33,0,.48-.19.62-.14h0c.42-.14,0-.09.33-.25l.26.13,0-.08c.05,0,.13,0,.13,0,.15-.09,0,0,0-.1.23,0,.58-.17.66-.06.06-.08-.22,0,0-.09.09.11.25-.09.46-.08,0,.08-.23.09,0,.1s.38-.07.53-.14c0-.09.35-.12.61-.23a5.15,5.15,0,0,0,.79-.12h0c0-.1.29-.15.47-.23,0,.06,0,.09-.12.14l.18,0a.5.5,0,0,1,.2-.11L27,42a4.19,4.19,0,0,1,.78-.26c0-.07-.29-.1,0-.24,0,0,.06.09,0,.12a.53.53,0,0,1,.15,0l-.11.09c.15,0,.06-.07.17-.1s.1,0,.09,0-.1,0-.14.05a.92.92,0,0,1,.35,0s0-.06.07-.1.1,0,.24,0,.21-.06.19-.13.09,0,.13,0,.56-.18.4-.21h0c.38-.19.84-.22,1.23-.38v0a4.21,4.21,0,0,0,.67-.32c.06,0,.17,0,.16,0a1.22,1.22,0,0,1,.44-.19c-.16.12.08,0-.17.11a1.27,1.27,0,0,0,.53-.24c-.06.1.2,0,.3-.08l-.18,0a3.29,3.29,0,0,1,.33-.16l0,.1c.51-.14.72-.59,1.14-.67.08-.12-.25.12-.19,0s.47-.17.53-.22c.29-.16.17-.27.44-.47,0,0-.13,0,0-.21s.29-.11.2,0-.06,0-.07,0-.11.14,0,.1v0c.11-.06.34-.29.32-.2.11-.15,0-.09-.09,0a5.9,5.9,0,0,0,.57-.55c-.05,0-.11,0-.07,0,.32-.33.08-.19.27-.44s.05.12.2-.15.09,0,.06.09a3.16,3.16,0,0,1,.45-.55l-.07.14a1.74,1.74,0,0,1,.13-.2l-.1,0c.06-.07.1-.14.12-.12s-.12,0-.07-.18.15-.32.24-.32c-.21.31.09,0-.06.28a.84.84,0,0,1,.12-.19s0,0,0,0c.22-.3,0-.19.16-.53,0,.06.11,0,.12-.11-.06.14-.09,0-.07-.1s0-.26.1-.38l-.06.14c0-.07,0-.17,0-.34,0,0,0,.15,0,.1,0-.2.16-.41.1-.69,0-.13.09,0,.1-.13-.09-.31,0-.37-.16-.68,0,.12,0,.12-.15-.07a2.5,2.5,0,0,1,.23.5,3,3,0,0,0-.19-.3,1.9,1.9,0,0,1,.15.41c-.08-.15-.07-.14-.1-.05,0-.24-.16-.39-.24-.62l.13-.08c-.17-.38-.52-.48-.91-.74l.13.09c-.09,0-.27-.12-.42-.17,0,0,0-.09-.1-.14s-.33-.12-.39,0L35,32.35c-.37-.1-.45.06-.8,0,.11,0-.05-.09.2-.11-.12,0-.23,0-.24,0s-.33.05-.44,0-.06.07-.2.07,0,0,0,0-.2,0-.08.09c-.38-.14-1,.12-1.33.05l-.77.2s0,0,0,0c-.33,0-.16.19-.52.23-.2,0,.17-.09.05-.09-.09-.15-.41.13-.68.11l.06,0c-.2,0-.42.19-.71.28a0,0,0,0,0,0,0,4.56,4.56,0,0,1-.8.43c.06-.09.11-.08,0-.12s.07.08-.17.19c-.09,0-.28,0-.33,0l.23-.1c-.15,0-.3.13-.42.16v0c-.35.16-.31.25-.69.41h0c-.16.18-.19,0-.36.19l-.1-.06c-.13.08-.42.31-.65.44a3.69,3.69,0,0,1,.51-.42,1.65,1.65,0,0,0-.48.3.44.44,0,0,1,.16-.1,1.69,1.69,0,0,1-.58.41c0-.19-.69.3-.95.25a11.59,11.59,0,0,1-1.45.67c.25,0-.16.07-.06.2l-.19.08-.42.08c-.11,0,.11-.08.08-.11-.28.11-.14,0-.34,0,.06,0-.06.11-.23.16l.25,0c-.36.24-.38,0-.74.26l.1-.1a4.11,4.11,0,0,0-.9.48s-.11,0,0-.07a10.69,10.69,0,0,1-1.46.54l0,0c-.09,0-.15.12-.27.12s0,0,0,0a1.14,1.14,0,0,1-.36.15l.1-.07a7.17,7.17,0,0,0-1.14.42c0-.11-.41-.06-.61,0h0c-.57.1-1,.26-1.5.39-.35-.07-1.15.11-1.69.09.08,0,0,.09-.1.11s-.35.1-.34,0h.05c-.11-.09-.36,0-.57,0l0,.13c-.54-.15-1.41.09-1.69-.09-.13,0-.29,0-.42,0l0-.07-1-.13.09,0c-.24,0-.34.14-.56.09l-.05-.11c-.41-.1-.78-.32-1.19-.42,0,0,0,0,.1,0-.19-.07-.63-.42-.64-.26,0-.08-.36-.23-.55-.37l.08,0c-.2-.06-.24,0-.43-.22s0-.08,0,0c-.1-.19-.15-.08-.29-.3l.1,0a.62.62,0,0,0-.26-.21c-.1-.1-.19-.37-.15-.43s-.14-.09-.18-.22,0,0,.06,0c-.09-.35-.26-.48-.26-.75,0,0,0,0,0,0a4.41,4.41,0,0,0,.12.48c.06,0,0-.24.14-.09a1.51,1.51,0,0,1-.29-.67s0,0,0,0v0a.29.29,0,0,0,0-.14v-.19c.05,0,0-.27,0-.38s-.06-.14-.11,0c0,0,0,0,0,.1A.07.07,0,0,0,6,34H6l0,.29A.38.38,0,0,1,6,34a.74.74,0,0,1-.12-.16c.1-.17.17-.47.24-.51,0-.36.1-.82,0-1.07s.08-.1.11-.13a.5.5,0,0,0,0,.16c0-.21.19-.57.13-.65.14-.22,0,.17.15-.16v.05C7,31,6.92,30.4,7.59,29.94a.16.16,0,0,1-.09,0,7.15,7.15,0,0,1,2.19-1.6.87.87,0,0,0,.35-.27l.08.05.21-.19c.32-.2.66-.09,1.07-.33l-.08,0c.17,0,.51-.2.5-.13a.11.11,0,0,1,.11-.05l0,0,.39-.17c.32,0,0,.16.44.08.17,0,.47-.2.4-.21s-.18,0-.19,0l.16-.05c0-.12.12-.26-.3-.27l-.26.12-.11,0,.24,0a.44.44,0,0,0-.31.08.23.23,0,0,0-.13,0l-.24.17S12.14,27,12,27s.14.07-.06.15-.12-.07-.26,0,0-.05.06-.08c-.13.08-.36.13-.41.21s-.45.16-.47.06a1.43,1.43,0,0,1-.33.22c.18-.21-.45.18-.45,0-.11.17-.56.32-.8.54a.17.17,0,0,1,.06-.06,1.8,1.8,0,0,1-.33.11c0,.1-.19.27-.28.4s.05-.17-.06-.21c.05.06-.27.28-.17.29-.16.06-.13.07-.24.06,0,.11-.11.11-.18.25s-.12,0-.29.16C7.62,29.18,7.77,29,7.77,29ZM5.69,34.73h0l0-.13Zm.11.52,0-.23s0,0,.06,0S5.8,35.17,5.8,35.25Zm.31-1.14c0,.08,0,.11,0,.12l0-.14h0Z" transform="translate(-1 -0.75)"/><path class="cls-7" d="M6,34v0l0,0Z" transform="translate(-1 -0.75)"/><path class="cls-7" d="M29.34,41.26h0Z" transform="translate(-1 -0.75)"/><polygon class="cls-7" points="10.59 38.19 10.59 38.17 10.55 38.18 10.59 38.19"/><path class="cls-7" d="M26.57,41.82h0Z" transform="translate(-1 -0.75)"/><path class="cls-7" d="M25.39,42.13l-.17,0Z" transform="translate(-1 -0.75)"/><path class="cls-7" d="M24.48,42.33v0h0Z" transform="translate(-1 -0.75)"/><path class="cls-7" d="M36.55,35.21v0C36.56,35.1,36.55,35.15,36.55,35.21Z" transform="translate(-1 -0.75)"/><path class="cls-7" d="M34.17,38.75l.09-.12C34.2,38.68,34.15,38.71,34.17,38.75Z" transform="translate(-1 -0.75)"/><polygon class="cls-7" points="32.79 32.08 32.79 32.07 32.77 32.08 32.79 32.08"/><path class="cls-7" d="M34.41,38.5a.49.49,0,0,0-.15.13A.93.93,0,0,0,34.41,38.5Z" transform="translate(-1 -0.75)"/><polygon class="cls-7" points="19.53 42.47 19.48 42.48 19.48 42.49 19.53 42.47"/><path class="cls-7" d="M20.48,43.24l-.05,0Z" transform="translate(-1 -0.75)"/><path class="cls-7" d="M20.33,43.3l.1,0S20.35,43.27,20.33,43.3Z" transform="translate(-1 -0.75)"/><path class="cls-7" d="M21.74,43v0A0,0,0,0,0,21.74,43Z" transform="translate(-1 -0.75)"/><path class="cls-7" d="M22.11,42.9a1.56,1.56,0,0,0-.35,0v0C21.8,42.91,22,43,22.11,42.9Z" transform="translate(-1 -0.75)"/><path class="cls-7" d="M23.71,42.84l-.31.06c.06,0,.14,0,0,.07C23.81,43,23.31,42.93,23.71,42.84Z" transform="translate(-1 -0.75)"/><path class="cls-7" d="M24.67,42.64c-.16,0,0,0,0,.06S24.8,42.63,24.67,42.64Z" transform="translate(-1 -0.75)"/><path class="cls-7" d="M31.46,40.59v.07C31.59,40.6,31.46,40.63,31.46,40.59Z" transform="translate(-1 -0.75)"/><polygon class="cls-7" points="31.55 38.98 31.42 39 31.4 39.08 31.55 38.98"/><polygon class="cls-7" points="32.48 38.98 32.43 39.02 32.61 38.88 32.48 38.98"/><path class="cls-7" d="M32.38,32.34l0,.07C32.52,32.38,32.52,32.29,32.38,32.34Z" transform="translate(-1 -0.75)"/><path class="cls-7" d="M27.47,34a.4.4,0,0,0-.28.1A1.43,1.43,0,0,0,27.47,34Z" transform="translate(-1 -0.75)"/><polygon class="cls-7" points="11.96 37.56 12.06 37.53 11.87 37.56 11.96 37.56"/><line class="cls-6" x1="14.79" y1="29.53" x2="19.67" y2="26.61"/><polygon class="cls-8" points="40.51 2 43.25 3.81 41.45 6.54 40.98 4.28 40.51 2"/></g></g></svg>