<svg xmlns="http://www.w3.org/2000/svg" viewBox="0 0 41.71 41.71"><defs><style>.cls-1{opacity:0.2;}.cls-2{fill:none;}.cls-2,.cls-3{stroke:#f2f2f2;stroke-miterlimit:10;stroke-width:2px;}.cls-3{fill:#f2f2f2;}</style></defs><g id="last-frame"><circle class="cls-2" cx="20.86" cy="20.86" r="19.86"/><circle class="cls-2" cx="20.86" cy="20.86" r="19.86"/><path class="cls-3" d="M25.52,25.3l9.76,7.48c1.29,1,3.32.19,3.32-1.3v-15c0-1.49-2-2.29-3.32-1.3L25.52,22.7A1.58,1.58,0,0,0,25.52,25.3Z" transform="translate(-3.14 -3.14)"/><path class="cls-3" d="M9.49,25.3l9.76,7.48c1.29,1,3.32.19,3.32-1.3v-15c0-1.49-2-2.29-3.32-1.3L9.49,22.7A1.58,1.58,0,0,0,9.49,25.3Z" transform="translate(-3.14 -3.14)"/></g></svg>