<svg xmlns="http://www.w3.org/2000/svg" viewBox="0 0 41.71 41.71"><defs><style>.cls-1{opacity:0.2;}.cls-2{fill:none;}.cls-2,.cls-3{stroke:#f2f2f2;stroke-miterlimit:10;stroke-width:2px;}.cls-3{fill:#f2f2f2;}</style></defs><g id="loop"><circle class="cls-2" cx="20.86" cy="20.86" r="19.86"/><circle class="cls-2" cx="20.86" cy="20.86" r="19.86"/><path class="cls-3" d="M16.73,16.05l3.14,2.4A.65.65,0,0,0,20.94,18V13.22a.66.66,0,0,0-1.07-.42l-3.14,2.41A.51.51,0,0,0,16.73,16.05Z" transform="translate(-3.14 -3.14)"/><rect class="cls-3" x="28.64" y="7.02" width="1.82" height="17.21" rx="0.77" transform="translate(42.03 -17.06) rotate(90)"/><rect class="cls-3" x="36.34" y="14.72" width="1.82" height="18.11" rx="0.77" transform="translate(71.35 44.41) rotate(-180)"/><rect class="cls-3" x="35.27" y="30.22" width="1.82" height="3.69" rx="0.77" transform="translate(0.98 65.1) rotate(-90)"/><path class="cls-3" d="M31.27,32l-3.14-2.4a.65.65,0,0,0-1.07.42v4.81a.66.66,0,0,0,1.07.42l3.14-2.41A.51.51,0,0,0,31.27,32Z" transform="translate(-3.14 -3.14)"/><rect class="cls-3" x="17.54" y="23.77" width="1.82" height="17.21" rx="0.77" transform="translate(-17.06 47.68) rotate(-90)"/><rect class="cls-3" x="6.7" y="12.03" width="1.82" height="18.11" rx="0.77"/><rect class="cls-3" x="10.91" y="14.09" width="1.82" height="3.69" rx="0.77" transform="translate(24.61 0.98) rotate(90)"/></g></svg>