<svg xmlns="http://www.w3.org/2000/svg" viewBox="0 0 48 48"><defs><style>.cls-1{opacity:0.2;}.cls-2,.cls-3{fill:none;stroke:#29abe2;}.cls-2,.cls-3,.cls-4,.cls-5{stroke-miterlimit:10;}.cls-3{stroke-width:2px;}.cls-4,.cls-5{fill:#f2f2f2;stroke-width:0.25px;}.cls-4{stroke:#ccc;}.cls-5{stroke:#b3b3b3;}</style></defs><g id="Setting"><g id="Configuracion"><path class="cls-2" d="M33.2,21.11A9.2,9.2,0,1,1,24,11.92,9.2,9.2,0,0,1,33.2,21.11Z"/><path class="cls-2" d="M33.2,21.11A9.2,9.2,0,1,1,24,11.92,9.2,9.2,0,0,1,33.2,21.11Z"/><path class="cls-3" d="M33.2,21.11A9.2,9.2,0,1,1,24,11.92,9.2,9.2,0,0,1,33.2,21.11Z"/><path class="cls-2" d="M43.64,23.18a1.39,1.39,0,0,1-1.39,1.39H38.52a14.67,14.67,0,0,1-1.71,4.21l2.68,2.69a1.38,1.38,0,0,1,0,2l-3.08,3.08a1.38,1.38,0,0,1-2,0l-2.66-2.66a14.6,14.6,0,0,1-4.12,1.74v3.8a1.4,1.4,0,0,1-1.39,1.4H21.9a1.4,1.4,0,0,1-1.39-1.4V35.64a14.92,14.92,0,0,1-4.24-1.74L13.6,36.57a1.4,1.4,0,0,1-2,0L8.55,33.48a1.38,1.38,0,0,1,0-2l2.67-2.67a14.72,14.72,0,0,1-1.73-4.21H5.75a1.39,1.39,0,0,1-1.39-1.39V18.88a1.4,1.4,0,0,1,1.39-1.4H9.53a14.68,14.68,0,0,1,1.7-4.08L8.59,10.76a1.4,1.4,0,0,1,0-2L11.68,5.7a1.4,1.4,0,0,1,2,0l2.64,2.65a14.8,14.8,0,0,1,4.22-1.74V2.85A1.39,1.39,0,0,1,21.9,1.46h4.37a1.39,1.39,0,0,1,1.39,1.39V6.66a14.6,14.6,0,0,1,4.1,1.72l2.72-2.72a1.4,1.4,0,0,1,2,0l3.09,3.09a1.4,1.4,0,0,1,0,2L36.8,13.45a15,15,0,0,1,1.66,4h3.79a1.4,1.4,0,0,1,1.39,1.4Z"/></g><path class="cls-4" d="M17.28,15.79,12,10l-.25-.26c-.31-.34-.17-1.14.32-1.78l.09-.11.52-.44,5.41-4.55a.83.83,0,0,1,.56-.15,2.3,2.3,0,0,1,1.31.58c.66.55.88,1.25.51,1.57L15.19,9.3l3.86,4.17a.8.8,0,0,1,.17.59,2.29,2.29,0,0,1-.48,1.19C18.25,15.89,17.6,16.13,17.28,15.79Z"/><path class="cls-5" d="M27.59,15.46V45.24a1.3,1.3,0,0,1-1.3,1.3h-.85a1.3,1.3,0,0,1-1.3-1.3V33.3c0-.65-1.1-.65-1.66-.65s-1.66,0-1.66.65V45.24a1.3,1.3,0,0,1-1.3,1.3h-.85a1.3,1.3,0,0,1-1.3-1.3V15.46a1.89,1.89,0,0,1,1.73-2h0a.82.82,0,0,1,.31.07,7.17,7.17,0,0,0,6.14,0,.82.82,0,0,1,.31-.07h0A1.89,1.89,0,0,1,27.59,15.46Z"/><path class="cls-4" d="M37.66,16.18l-5.5,5.58-.25.26c-.33.33-1.13.22-1.79-.23L30,21.7l-.45-.49L24.74,16a.78.78,0,0,1-.18-.54,2.34,2.34,0,0,1,.51-1.34c.52-.68,1.22-.94,1.55-.59l4.65,5,4-4.05a.82.82,0,0,1,.58-.2,2.29,2.29,0,0,1,1.21.42C37.71,15.2,38,15.84,37.66,16.18Z"/><ellipse class="cls-4" cx="24.26" cy="7.83" rx="4.99" ry="5.09"/></g></svg>