<svg xmlns="http://www.w3.org/2000/svg" viewBox="0 0 46 46.51"><defs><style>.cls-1{opacity:0.2;}.cls-2,.cls-3{fill:#f2f2f2;stroke:#b3b3b3;}.cls-2,.cls-3,.cls-4{stroke-miterlimit:10;}.cls-2{stroke-width:0.25px;}.cls-3{stroke-width:0.5px;}.cls-4{fill:none;stroke:red;}.cls-5{font-size:6px;fill:red;font-family:MyriadPro-Regular, Myriad Pro;}</style></defs><g id="streaming"><g id="Capture"><rect class="cls-2" x="25.16" y="27.8" width="3.05" height="14.67" rx="1.52"/><ellipse class="cls-2" cx="23.7" cy="8.54" rx="4.41" ry="4.5"/><rect class="cls-2" x="19.18" y="27.8" width="3.05" height="14.67" rx="1.52"/><path class="cls-2" d="M29.21,15.75v14a1.66,1.66,0,0,1-1.52,1.77H26.16c0-.57-1-.55-1.46-.55s-1.47,0-1.47.55H21.71a1.66,1.66,0,0,1-1.53-1.77v-14A1.67,1.67,0,0,1,21.71,14h0A.68.68,0,0,1,22,14a6.42,6.42,0,0,0,5.42,0,.64.64,0,0,1,.27-.07h0A1.67,1.67,0,0,1,29.21,15.75Z" transform="translate(-1 -0.75)"/><rect class="cls-2" x="28.34" y="13.5" width="2.22" height="8.31" rx="1.11" transform="translate(-5.88 16.35) rotate(-30)"/><rect class="cls-2" x="18.32" y="13.03" width="2.22" height="7.66" rx="1.11" transform="translate(18.54 -9.61) rotate(49.3)"/><rect class="cls-2" x="30.93" y="13.99" width="2.22" height="7.66" rx="1.11" transform="translate(8.41 -11.77) rotate(22.8)"/><rect class="cls-2" x="15.01" y="12.33" width="2.22" height="7.66" rx="1.11" transform="translate(-6.54 8.21) rotate(-26.66)"/><path class="cls-3" d="M46.75,1.58V46.41a.58.58,0,0,1-.57.59H19.08a.58.58,0,0,1-.58-.59v-.09a.59.59,0,0,1,.58-.6H45.51V2.27h-43V29.43a.58.58,0,0,1-.57.59h-.1a.58.58,0,0,1-.57-.59V1.58a.17.17,0,0,1,0-.07A.56.56,0,0,1,1.82,1H46.18A.58.58,0,0,1,46.75,1.58Z" transform="translate(-1 -0.75)"/></g><path class="cls-4" d="M4.62,34.12A7.19,7.19,0,0,1,11.48,36a7.21,7.21,0,0,1,1.85,6.85" transform="translate(-1 -0.75)"/><path class="cls-4" d="M4.34,37.11" transform="translate(-1 -0.75)"/><path class="cls-4" d="M3.71,43.73" transform="translate(-1 -0.75)"/><path class="cls-4" d="M4.34,37.11a5.36,5.36,0,0,1,4.75,1.25,5.33,5.33,0,0,1,1.24,4.74" transform="translate(-1 -0.75)"/><path class="cls-4" d="M3.71,43.73" transform="translate(-1 -0.75)"/><path class="cls-4" d="M4.92,31A9.29,9.29,0,0,1,16.44,42.52" transform="translate(-1 -0.75)"/><path class="cls-4" d="M4.34,37.11" transform="translate(-1 -0.75)"/><path class="cls-4" d="M3.71,43.73" transform="translate(-1 -0.75)"/><path class="cls-4" d="M4.34,37.11" transform="translate(-1 -0.75)"/><path class="cls-4" d="M3.71,43.73" transform="translate(-1 -0.75)"/><ellipse class="cls-4" cx="3.74" cy="41.54" rx="2.01" ry="2.05"/><text class="cls-5" transform="translate(32.09 7.33)">LIVE</text></g></svg>